<?xml version="1.0" encoding="UTF-8"?>
<svg id="Layer_1" xmlns="http://www.w3.org/2000/svg" version="1.1" viewBox="0 0 160 160">
  <!-- Generator: Adobe Illustrator 30.0.0, SVG Export Plug-In . SVG Version: 2.1.1 Build 123)  -->
  <path d="M160,50.48v68.28c0,22.38-17.86,40.6-40.1,41.19v-68.39h-.01c.08-2.05-.4-4.14-1.5-6.04l-1.35-2.34c-1.37-2.37-3.47-4.06-5.85-4.93-3.03-1.11-6.5-.92-9.51.81l-20.89,12.06c-.24.14-.47.29-.7.44h-.09v37.05c-.08,1.01-.21,2-.37,2.98-2.52,14.63-14.31,26.07-29.11,28.07v-16.53c0-18.61-15.08-33.69-33.69-33.69H0V41.23C0,18.86,17.86.64,40.1.04v68.32h0c-.09,2.07.39,4.19,1.5,6.11l1.35,2.34c1.37,2.37,3.47,4.06,5.85,4.93,3.03,1.11,6.5.92,9.51-.81l20.89-12.06c.27-.16.54-.33.79-.51V31.98c.07-1.18.21-2.35.4-3.49,2.45-14.68,14.26-26.19,29.08-28.21v16.52c0,18.61,15.08,33.69,33.69,33.69h16.83Z" fill="#4ba1ff"/>
</svg>